# xmcd CD Database Entry
#
# Track frame offsets:
# 150
# 17073
# 28565
# 40755
# 50823
# 58893
# 70363
# 80953
# 94065
#
# Disc length: 1423 seconds
#
# Revision: 6
# Processed by: cddbd v1.4b41PL1 Copyright (c) Steve Scherf et al.
# Submitted via: tcd 2.0b
#
DISCID=7d058d09
DTITLE=Willie Nelson/ Love and Pain
DYEAR=1900
DGENRE=
TTITLE0=I Let My Mind Wander
TTITLE1=December Days
TTITLE2=I Can't Find The Time
TTITLE3=I Didn't Sleep A Wink
TTITLE4=You Wouldn't Cross The Street To See Me
TTITLE5=Suffering in Silence
TTITLE6=Feel Sorry For Him
TTITLE7=You'll Always Have Someone
TTITLE8=I Just Don't Understand
EXTD=Forever Music Group Inc. - 1996
EXTT0=
EXTT1=
EXTT2=
EXTT3=
EXTT4=
EXTT5=
EXTT6=
EXTT7=
EXTT8=
PLAYORDER=
